<?xml version="1.0" encoding="UTF-8"?>
<svg width="708px" height="63px" viewBox="0 0 708 63" version="1.1" xmlns="http://www.w3.org/2000/svg" xmlns:xlink="http://www.w3.org/1999/xlink">
    <!-- Generator: Sketch 47.1 (45422) - http://www.bohemiancoding.com/sketch -->
    <title>Group 11</title>
    <desc>Created with Sketch.</desc>
    <defs></defs>
    <g id="Page-1" stroke="none" stroke-width="1" fill="none" fill-rule="evenodd">
        <g id="Group-11" fill="#FFFFFF">
            <g id="Group-9">
                <g id="Group" transform="translate(0.000000, 1.693440)" fill-rule="nonzero">
                    <g transform="translate(0.000000, 8.128512)" id="Shape">
                        <path d="M15.4441724,5.89317104 C14.0216828,5.28353266 12.1927677,4.87710707 10.5670653,4.87710707 C6.09638384,4.87710707 3.8610431,7.72208619 3.8610431,11.5831293 C3.8610431,15.2409596 6.09638384,18.2891515 10.1606397,18.2891515 C11.1767037,18.2891515 11.9895549,18.0859387 12.5991933,18.0859387 L12.5991933,13.2088316 L8.73815016,13.2088316 L8.73815016,10.1606397 L16.2570236,10.1606397 L16.2570236,20.1180667 C14.4281084,20.727705 12.3959805,21.1341306 10.1606397,21.1341306 C4.06425589,20.9309178 0,18.0859387 0,11.7863421 C0,5.48674545 3.8610431,2.03212795 10.1606397,2.03212795 C12.1927677,2.03212795 13.81847,2.23534074 15.6473852,2.84497912 L15.4441724,5.89317104 Z"></path>
                        <path d="M19.7116411,7.11244781 L22.759833,7.11244781 L22.759833,10.1606397 L22.759833,10.1606397 C22.9630458,8.94136296 24.3855353,6.90923501 26.4176633,6.90923501 C26.8240889,6.90923501 27.0273017,6.90923501 27.4337273,7.11244781 L27.4337273,10.5670653 C27.0273017,10.3638525 26.4176633,10.3638525 25.8080249,10.3638525 C22.9630458,10.3638525 22.9630458,13.81847 22.9630458,16.0538108 L22.9630458,21.1341306 L19.5084283,21.1341306 L19.7116411,7.11244781 L19.7116411,7.11244781 Z"></path>
                        <path d="M40.4393461,19.9148539 C39.2200693,20.5244922 37.7975798,20.9309178 35.7654518,20.9309178 C31.0915576,20.9309178 28.653004,18.4923643 28.653004,13.81847 C28.653004,9.95742693 30.685132,6.50280943 34.9526007,6.50280943 C40.0329205,6.50280943 41.4554101,9.95742693 41.4554101,14.834534 L32.1076215,14.834534 C32.3108343,17.0698747 33.7333239,18.2891515 35.9686646,18.2891515 C37.594367,18.2891515 39.0168566,17.6795131 40.6425589,16.8666619 L40.6425589,19.7116411 C40.6425589,19.9148539 40.4393461,19.9148539 40.4393461,19.9148539 Z M38.0007926,12.3959805 C37.7975798,10.7702781 37.1879414,9.34778855 35.1558135,9.34778855 C33.1236855,9.34778855 32.3108343,10.7702781 32.1076215,12.3959805 L38.0007926,12.3959805 Z"></path>
                        <path d="M44.7068148,7.72208619 C46.1293044,7.11244781 47.9582195,6.70602222 49.5839219,6.70602222 C53.6481778,6.70602222 55.4770929,8.33172458 55.4770929,12.5991933 L55.4770929,14.2248956 C55.4770929,15.6473852 55.4770929,16.6634492 55.4770929,17.4763003 C55.4770929,18.4923643 55.4770929,19.5084283 55.6803057,20.5244922 L52.6321138,20.5244922 C52.428901,19.9148539 52.428901,18.8987899 52.428901,18.4923643 L52.428901,18.4923643 C51.6160498,19.9148539 49.9903475,20.727705 48.3646451,20.727705 C45.9260916,20.727705 43.487538,19.3052155 43.487538,16.8666619 C43.487538,14.834534 44.503602,13.6152572 45.7228788,13.0056189 C46.9421555,12.3959805 48.7710707,12.1927677 50.396773,12.1927677 L52.2256882,12.1927677 C52.2256882,9.95742693 51.2096242,9.34778855 49.1774963,9.34778855 C47.7550067,9.34778855 46.3325172,9.95742693 45.1132404,10.7702781 L45.1132404,7.72208619 L44.7068148,7.72208619 Z M48.9742835,18.4923643 C49.9903475,18.4923643 50.8031986,18.0859387 51.412837,17.2730875 C52.0224754,16.4602364 52.2256882,15.6473852 52.2256882,14.6313212 L50.8031986,14.6313212 C49.1774963,14.6313212 46.9421555,14.834534 46.9421555,16.8666619 C46.5357299,17.8827259 47.5517939,18.4923643 48.9742835,18.4923643 Z"></path>
                        <path d="M60.1509872,9.55100134 L57.5092209,9.55100134 L57.5092209,7.11244781 L60.1509872,7.11244781 L60.1509872,4.47068148 L63.6056047,3.45461751 L63.6056047,7.3156606 L66.6537966,7.3156606 L66.6537966,9.75421414 L63.6056047,9.75421414 L63.6056047,16.2570236 C63.6056047,17.4763003 64.0120303,18.4923643 65.231307,18.4923643 C65.8409454,18.4923643 66.4505838,18.2891515 66.8570094,18.0859387 L67.0602222,20.727705 C66.247371,20.9309178 65.6377326,21.1341306 64.4184559,21.1341306 C61.7766895,21.1341306 59.9477744,19.5084283 59.9477744,16.6634492 C60.1509872,16.8666619 60.1509872,9.55100134 60.1509872,9.55100134 Z"></path>
                        <path d="M84.9429481,1.82891515 C90.8361192,1.82891515 93.8843111,5.68995825 93.8843111,11.3799165 C93.8843111,17.0698747 90.8361192,20.9309178 84.9429481,20.9309178 C79.0497771,20.9309178 76.0015852,17.0698747 76.0015852,11.3799165 C76.0015852,5.68995825 79.0497771,1.82891515 84.9429481,1.82891515 Z M84.9429481,18.0859387 C88.6007784,18.0859387 90.2264808,14.834534 90.2264808,11.3799165 C90.2264808,8.12851178 88.8039912,4.67389427 84.9429481,4.67389427 C81.081905,4.67389427 79.6594155,7.92529899 79.6594155,11.3799165 C79.8626283,14.834534 81.081905,18.0859387 84.9429481,18.0859387 Z"></path>
                        <path d="M97.1357158,7.11244781 L100.183908,7.11244781 L100.183908,10.1606397 L100.183908,10.1606397 C100.38712,8.94136296 101.80961,6.70602222 103.841738,6.70602222 C104.248164,6.70602222 104.451376,6.70602222 104.857802,6.90923501 L104.857802,10.3638525 C104.654589,10.1606397 104.044951,10.1606397 103.435312,10.1606397 C100.590333,10.1606397 100.590333,13.6152572 100.590333,15.850598 L100.590333,20.9309178 L97.1357158,20.9309178 L97.1357158,7.11244781 L97.1357158,7.11244781 Z"></path>
                        <path d="M107.296356,7.11244781 L110.54776,7.11244781 L110.54776,8.94136296 L110.54776,8.94136296 C111.563824,7.3156606 113.189527,6.70602222 114.408803,6.70602222 C116.237718,6.70602222 117.660208,7.3156606 118.269846,9.14457575 C119.082698,7.5188734 120.7084,6.70602222 122.334102,6.70602222 C125.585507,6.70602222 126.804784,8.94136296 126.804784,12.1927677 L126.804784,20.727705 L123.350166,20.727705 L123.350166,12.5991933 C123.350166,11.3799165 123.350166,9.55100134 121.318038,9.55100134 C119.082698,9.55100134 118.676272,12.1927677 118.676272,14.2248956 L118.676272,20.9309178 L115.221655,20.9309178 L115.221655,12.8024061 C115.221655,11.5831293 115.221655,9.75421414 113.189527,9.75421414 C110.954186,9.75421414 110.54776,12.3959805 110.54776,14.4281084 L110.54776,21.1341306 L107.093143,21.1341306 L107.093143,7.5188734 L107.296356,7.5188734 L107.296356,7.11244781 Z"></path>
                        <path d="M137.168636,6.70602222 C141.029679,6.70602222 144.281084,9.34778855 144.281084,14.0216828 C144.281084,17.8827259 141.639318,21.1341306 137.168636,21.1341306 C132.494742,21.1341306 130.056189,18.0859387 130.056189,14.0216828 C130.056189,9.55100134 133.10438,6.70602222 137.168636,6.70602222 Z M137.168636,18.2891515 C139.810403,18.2891515 140.623254,15.850598 140.623254,13.4120444 C140.623254,11.3799165 139.60719,9.55100134 137.168636,9.55100134 C134.933296,9.55100134 133.917232,11.5831293 133.917232,13.4120444 C133.714019,15.850598 134.323657,18.2891515 137.168636,18.2891515 Z"></path>
                        <path d="M147.126063,7.11244781 L150.377468,7.11244781 L150.377468,8.94136296 L150.377468,8.94136296 C151.393532,7.5188734 153.019234,6.90923501 154.848149,6.90923501 C158.099554,6.90923501 159.522044,9.14457575 159.522044,12.3959805 L159.522044,20.9309178 L156.270639,20.9309178 L156.270639,13.6152572 C156.270639,11.9895549 156.270639,9.75421414 154.035298,9.75421414 C151.596745,9.75421414 150.987106,12.3959805 150.987106,14.4281084 L150.987106,21.1341306 L147.532489,21.1341306 C147.126063,20.727705 147.126063,7.11244781 147.126063,7.11244781 Z"></path>
                        <path d="M172.32445,19.1020027 L172.32445,19.1020027 C171.308386,20.3212795 169.885896,20.9309178 168.260194,20.9309178 C164.195938,20.9309178 162.570236,17.4763003 162.570236,13.81847 C162.570236,10.1606397 163.992725,6.70602222 168.260194,6.70602222 C170.089109,6.70602222 171.105173,7.3156606 172.32445,8.53493737 L172.32445,8.53493737 L172.32445,0.609638384 L175.779067,0.609638384 L175.779067,20.3212795 L172.32445,20.3212795 L172.32445,19.1020027 Z M168.869832,18.2891515 C171.105173,18.2891515 171.918024,15.850598 171.918024,13.81847 C171.918024,11.7863421 171.105173,9.34778855 168.869832,9.34778855 C166.634492,9.34778855 166.024853,11.7863421 166.024853,13.81847 C166.024853,15.850598 166.634492,18.2891515 168.869832,18.2891515 Z"></path>
                        <path d="M197.116411,5.68995825 C195.897134,5.28353266 194.677857,4.87710707 193.45858,4.87710707 C192.239304,4.87710707 190.613601,5.48674545 190.613601,7.3156606 C190.613601,10.3638525 198.742113,9.14457575 198.742113,15.4441724 C198.742113,19.3052155 195.693921,21.1341306 191.832878,21.1341306 C189.80075,21.1341306 188.987899,20.9309178 186.955771,20.5244922 L187.362197,17.2730875 C188.581473,17.8827259 190.003963,18.2891515 191.426452,18.2891515 C192.848942,18.2891515 194.677857,17.6795131 194.677857,16.0538108 C194.677857,12.5991933 186.549345,14.0216828 186.549345,7.92529899 C186.549345,3.8610431 189.597537,2.23534074 193.052155,2.23534074 C194.677857,2.23534074 196.100347,2.43855353 197.522836,2.84497912 L197.116411,5.68995825 Z"></path>
                        <path d="M202.603156,9.55100134 L199.96139,9.55100134 L199.96139,7.11244781 L202.603156,7.11244781 L202.603156,4.47068148 L206.057774,3.45461751 L206.057774,7.3156606 L209.105966,7.3156606 L209.105966,9.75421414 L206.057774,9.75421414 L206.057774,16.2570236 C206.057774,17.4763003 206.464199,18.4923643 207.683476,18.4923643 C208.293114,18.4923643 208.902753,18.2891515 209.309178,18.0859387 L209.512391,20.727705 C208.69954,20.9309178 208.089902,21.1341306 206.870625,21.1341306 C204.228859,21.1341306 202.399943,19.5084283 202.399943,16.6634492 L202.399943,9.55100134 L202.603156,9.55100134 Z"></path>
                        <path d="M211.747732,7.11244781 L214.795924,7.11244781 L214.795924,10.1606397 L214.795924,10.1606397 C214.999137,8.94136296 216.421626,6.90923501 218.453754,6.90923501 C218.86018,6.90923501 219.063393,6.90923501 219.469818,7.11244781 L219.469818,10.5670653 C219.063393,10.3638525 218.453754,10.3638525 217.844116,10.3638525 C214.999137,10.3638525 214.999137,13.81847 214.999137,16.0538108 L214.999137,21.1341306 L211.544519,21.1341306 L211.747732,7.11244781 L211.747732,7.11244781 Z"></path>
                        <path d="M232.475437,19.9148539 C231.25616,20.5244922 229.833671,20.9309178 227.801543,20.9309178 C223.127648,20.9309178 220.689095,18.4923643 220.689095,13.81847 C220.689095,9.95742693 222.721223,6.50280943 226.988691,6.50280943 C232.069011,6.50280943 233.491501,9.95742693 233.491501,14.834534 L224.143712,14.834534 C224.346925,17.0698747 225.769415,18.2891515 228.004755,18.2891515 C229.630458,18.2891515 231.052947,17.6795131 232.67865,16.8666619 L232.475437,19.9148539 L232.475437,19.9148539 Z M230.036883,12.3959805 C229.833671,10.7702781 229.224032,9.34778855 227.191904,9.34778855 C225.159776,9.34778855 224.346925,10.7702781 224.143712,12.3959805 L230.036883,12.3959805 Z"></path>
                        <path d="M247.106758,19.9148539 C245.887481,20.5244922 244.464992,20.9309178 242.432864,20.9309178 C237.75897,20.9309178 235.320416,18.4923643 235.320416,13.81847 C235.320416,9.95742693 237.352544,6.50280943 241.620013,6.50280943 C246.700333,6.50280943 248.122822,9.95742693 248.122822,14.834534 L238.775034,14.834534 C238.978246,17.0698747 240.400736,18.2891515 242.636077,18.2891515 C244.261779,18.2891515 245.684269,17.6795131 247.309971,16.8666619 L247.106758,19.9148539 L247.106758,19.9148539 Z M244.668205,12.3959805 C244.464992,10.7702781 243.855353,9.34778855 241.823225,9.34778855 C239.791098,9.34778855 238.978246,10.7702781 238.775034,12.3959805 L244.668205,12.3959805 Z"></path>
                        <path d="M252.187078,9.55100134 L249.545312,9.55100134 L249.545312,7.11244781 L252.187078,7.11244781 L252.187078,4.47068148 L255.641696,3.45461751 L255.641696,7.3156606 L258.689887,7.3156606 L258.689887,9.75421414 L255.641696,9.75421414 L255.641696,16.2570236 C255.641696,17.4763003 256.048121,18.4923643 257.267398,18.4923643 C257.877036,18.4923643 258.486675,18.2891515 258.8931,18.0859387 L259.096313,20.727705 C258.283462,20.9309178 257.673823,21.1341306 256.454547,21.1341306 C253.81278,21.1341306 251.983865,19.5084283 251.983865,16.6634492 L251.983865,9.55100134 L252.187078,9.55100134 Z"></path>
                        <polygon points="3.25140471 29.0594296 6.90923501 29.0594296 6.90923501 36.578303 14.4281084 36.578303 14.4281084 29.0594296 18.2891515 29.0594296 18.2891515 47.5517939 14.6313212 47.5517939 14.6313212 39.4232821 7.11244781 39.4232821 7.11244781 47.5517939 3.45461751 47.5517939 3.45461751 29.0594296"></polygon>
                        <path d="M28.4497912,33.7333239 C32.3108343,33.7333239 35.562239,36.3750902 35.562239,41.0489845 C35.562239,44.9100276 32.9204727,48.1614323 28.4497912,48.1614323 C23.775897,48.1614323 21.3373434,45.1132404 21.3373434,41.0489845 C21.1341306,36.3750902 24.3855353,33.7333239 28.4497912,33.7333239 Z M28.4497912,45.1132404 C31.0915576,45.1132404 31.9044087,42.6746869 31.9044087,40.2361333 C31.9044087,38.2040054 30.8883448,36.3750902 28.4497912,36.3750902 C26.2144505,36.3750902 25.1983865,38.4072182 25.1983865,40.2361333 C24.9951737,42.6746869 25.8080249,45.1132404 28.4497912,45.1132404 Z"></path>
                        <path d="M46.3325172,36.7815158 C45.3164532,36.3750902 44.503602,36.1718774 43.2843252,36.1718774 C42.2682613,36.1718774 41.2521973,36.578303 41.2521973,37.594367 C41.2521973,39.6264949 47.5517939,38.4072182 47.5517939,43.2843252 C47.5517939,46.3325172 44.7068148,47.7550067 41.8618357,47.7550067 C40.6425589,47.7550067 39.2200693,47.5517939 38.0007926,47.1453683 L38.2040054,44.3003892 C39.2200693,44.9100276 40.4393461,45.1132404 41.6586229,45.1132404 C42.4714741,45.1132404 43.8939636,44.7068148 43.8939636,43.487538 C43.8939636,40.8457717 37.594367,42.6746869 37.594367,37.594367 C37.594367,34.7493879 40.0329205,33.5301111 43.0811124,33.5301111 C44.7068148,33.5301111 45.7228788,33.7333239 46.9421555,33.9365367 L46.3325172,36.7815158 Z"></path>
                        <path d="M50.1935602,33.9365367 L53.444965,33.9365367 L53.444965,35.7654518 L53.444965,35.7654518 C54.2578161,34.5461751 55.4770929,33.5301111 57.5092209,33.5301111 C61.5734767,33.5301111 63.1991791,36.7815158 63.1991791,40.6425589 C63.1991791,44.503602 61.7766895,47.7550067 57.3060081,47.7550067 C55.8835185,47.7550067 54.6642417,47.3485811 53.444965,45.9260916 L53.444965,45.9260916 L53.444965,52.8353266 L49.9903475,52.8353266 L50.1935602,33.9365367 L50.1935602,33.9365367 Z M53.6481778,40.8457717 C53.6481778,42.6746869 54.4610289,45.3164532 56.6963697,45.3164532 C58.9317104,45.3164532 59.5413488,42.8778996 59.5413488,40.8457717 C59.5413488,39.0168566 58.9317104,36.3750902 56.6963697,36.3750902 C54.4610289,36.3750902 53.6481778,38.8136438 53.6481778,40.8457717 Z"></path>
                        <path d="M66.4505838,28.0433656 L69.9052013,28.0433656 L69.9052013,31.2947704 L66.4505838,31.2947704 L66.4505838,28.0433656 Z M66.4505838,33.9365367 L69.9052013,33.9365367 L69.9052013,47.5517939 L66.4505838,47.5517939 L66.4505838,33.9365367 Z"></path>
                        <path d="M74.7823084,36.578303 L72.1405421,36.578303 L72.1405421,34.1397495 L74.7823084,34.1397495 L74.7823084,31.4979832 L78.2369259,30.4819192 L78.2369259,34.3429623 L81.2851178,34.3429623 L81.2851178,36.7815158 L78.2369259,36.7815158 L78.2369259,43.2843252 C78.2369259,44.503602 78.6433515,45.519666 79.8626283,45.519666 C80.4722666,45.519666 81.081905,45.3164532 81.4883306,45.1132404 L81.6915434,47.7550067 C80.8786922,47.9582195 80.2690538,48.1614323 79.0497771,48.1614323 C76.4080107,48.1614323 74.5790956,46.5357299 74.5790956,43.6907508 L74.5790956,36.578303 L74.7823084,36.578303 Z"></path>
                        <path d="M84.5365225,34.7493879 C85.9590121,34.1397495 87.7879272,33.7333239 89.4136296,33.7333239 C93.4778855,33.7333239 95.3068006,35.3590262 95.3068006,39.6264949 L95.3068006,41.2521973 C95.3068006,42.6746869 95.3068006,43.6907508 95.3068006,44.503602 C95.3068006,45.519666 95.3068006,46.5357299 95.5100134,47.5517939 L92.4618215,47.5517939 C92.2586087,46.9421555 92.2586087,45.9260916 92.2586087,45.519666 L92.2586087,45.519666 C91.4457575,46.9421555 89.8200552,47.7550067 88.1943528,47.7550067 C85.7557993,47.7550067 83.3172458,46.3325172 83.3172458,43.8939636 C83.3172458,41.8618357 84.3333097,40.6425589 85.5525865,40.0329205 C86.7718633,39.4232821 88.6007784,39.2200693 90.2264808,39.2200693 L92.0553959,39.2200693 C92.0553959,36.9847286 91.039332,36.3750902 89.007204,36.3750902 C87.5847144,36.3750902 86.1622249,36.9847286 84.9429481,37.7975798 L84.9429481,34.7493879 L84.5365225,34.7493879 Z M88.6007784,45.3164532 C89.6168424,45.3164532 90.4296936,44.9100276 91.039332,44.0971764 C91.6489703,43.2843252 91.8521831,42.4714741 91.8521831,41.4554101 L90.4296936,41.4554101 C88.8039912,41.4554101 86.5686505,41.6586229 86.5686505,43.6907508 C86.3654377,44.7068148 87.3815016,45.3164532 88.6007784,45.3164532 Z"></path>
                        <polygon points="98.5582053 27.6369401 102.012823 27.6369401 102.012823 47.3485811 98.5582053 47.3485811"></polygon>
                        <path d="M114.612016,36.578303 L111.97025,36.578303 L111.97025,34.1397495 L114.612016,34.1397495 L114.612016,32.3108343 C114.612016,29.669068 116.034506,27.6369401 119.082698,27.6369401 C119.895549,27.6369401 120.911613,27.8401529 121.521251,27.8401529 L121.318038,30.685132 C120.911613,30.4819192 120.505187,30.2787064 119.895549,30.2787064 C118.676272,30.2787064 118.473059,31.2947704 118.473059,32.3108343 L118.473059,33.9365367 L121.521251,33.9365367 L121.521251,36.578303 L118.473059,36.578303 L118.473059,47.5517939 L115.018442,47.5517939 L114.612016,36.578303 L114.612016,36.578303 Z"></path>
                        <path d="M129.852976,33.7333239 C133.714019,33.7333239 136.965424,36.3750902 136.965424,41.0489845 C136.965424,44.9100276 134.323657,48.1614323 129.852976,48.1614323 C125.179081,48.1614323 122.740528,45.1132404 122.740528,41.0489845 C122.740528,36.3750902 125.78872,33.7333239 129.852976,33.7333239 Z M129.852976,45.1132404 C132.494742,45.1132404 133.307593,42.6746869 133.307593,40.2361333 C133.307593,38.2040054 132.291529,36.3750902 129.852976,36.3750902 C127.617635,36.3750902 126.601571,38.4072182 126.601571,40.2361333 C126.601571,42.6746869 127.211209,45.1132404 129.852976,45.1132404 Z"></path>
                        <path d="M139.810403,33.9365367 L142.858595,33.9365367 L142.858595,36.9847286 L142.858595,36.9847286 C143.061807,35.7654518 144.484297,33.7333239 146.516425,33.7333239 C146.92285,33.7333239 147.126063,33.7333239 147.532489,33.9365367 L147.532489,37.3911542 C147.329276,36.9847286 146.719638,36.9847286 146.109999,36.9847286 C143.26502,36.9847286 143.26502,40.4393461 143.26502,42.6746869 L143.26502,47.7550067 L139.810403,47.7550067 C139.810403,47.5517939 139.810403,33.9365367 139.810403,33.9365367 Z"></path>
                        <path d="M171.105173,47.1453683 C169.885896,47.5517939 168.463407,47.7550067 167.040917,47.7550067 C160.944533,47.7550067 156.880277,44.9100276 156.880277,38.610431 C156.880277,32.3108343 160.74132,28.8562168 167.040917,28.8562168 C168.260194,28.8562168 169.885896,29.0594296 171.105173,29.669068 L170.90196,32.7172599 C169.479471,31.9044087 168.260194,31.7011959 167.040917,31.7011959 C163.383087,31.7011959 160.74132,34.5461751 160.74132,38.4072182 C160.74132,42.0650485 162.976661,45.1132404 167.040917,45.1132404 C168.463407,45.1132404 170.089109,44.7068148 170.90196,44.3003892 L171.105173,47.1453683 Z"></path>
                        <path d="M173.543727,27.6369401 L176.998344,27.6369401 L176.998344,35.7654518 L176.998344,35.7654518 C177.811195,34.5461751 179.436898,33.7333239 181.469026,33.7333239 C184.72043,33.7333239 186.14292,35.9686646 186.14292,39.2200693 L186.14292,47.7550067 L182.688302,47.7550067 L182.688302,40.4393461 C182.688302,38.8136438 182.688302,36.578303 180.452962,36.578303 C178.014408,36.578303 177.40477,39.2200693 177.40477,41.2521973 L177.40477,47.9582195 L173.950152,47.9582195 L173.950152,27.6369401 L173.543727,27.6369401 Z"></path>
                        <path d="M189.80075,28.0433656 L193.255368,28.0433656 L193.255368,31.2947704 L189.80075,31.2947704 L189.80075,28.0433656 Z M189.80075,33.9365367 L193.255368,33.9365367 L193.255368,47.5517939 L189.80075,47.5517939 L189.80075,33.9365367 Z"></path>
                        <polygon points="197.116411 27.6369401 200.571028 27.6369401 200.571028 47.3485811 197.116411 47.3485811"></polygon>
                        <path d="M213.576647,45.9260916 L213.576647,45.9260916 C212.560583,47.1453683 211.138094,47.7550067 209.512391,47.7550067 C205.448135,47.7550067 203.822433,44.3003892 203.822433,40.6425589 C203.822433,36.9847286 205.244922,33.5301111 209.512391,33.5301111 C211.341306,33.5301111 212.35737,34.1397495 213.576647,35.3590262 L213.576647,35.3590262 L213.576647,27.6369401 L217.031265,27.6369401 L217.031265,47.3485811 L213.576647,47.3485811 L213.576647,45.9260916 Z M210.12203,45.1132404 C212.35737,45.1132404 213.170221,42.6746869 213.170221,40.6425589 C213.170221,38.8136438 212.35737,36.1718774 210.12203,36.1718774 C207.886689,36.1718774 207.27705,38.610431 207.27705,40.6425589 C207.27705,42.6746869 207.886689,45.1132404 210.12203,45.1132404 Z"></path>
                        <path d="M220.485882,33.9365367 L223.534074,33.9365367 L223.534074,36.9847286 L223.534074,36.9847286 C223.737287,35.7654518 225.159776,33.7333239 227.191904,33.7333239 C227.59833,33.7333239 227.801543,33.7333239 228.207968,33.9365367 L228.207968,37.3911542 C227.801543,37.1879414 227.191904,37.1879414 226.582266,37.1879414 C223.737287,37.1879414 223.737287,40.6425589 223.737287,42.8778996 L223.737287,47.9582195 L220.485882,47.9582195 L220.485882,33.9365367 Z"></path>
                        <path d="M241.4168,46.7389427 C240.197523,47.3485811 238.775034,47.7550067 236.742906,47.7550067 C232.069011,47.7550067 229.630458,45.3164532 229.630458,40.6425589 C229.630458,36.7815158 231.662586,33.3268983 235.930054,33.3268983 C241.010374,33.3268983 242.432864,36.7815158 242.432864,41.6586229 L233.085075,41.6586229 C233.288288,43.8939636 234.710778,45.1132404 236.946118,45.1132404 C238.571821,45.1132404 239.99431,44.503602 241.620013,43.6907508 L241.4168,46.7389427 L241.4168,46.7389427 Z M238.775034,39.4232821 C238.571821,37.7975798 237.962182,36.3750902 235.930054,36.3750902 C233.897927,36.3750902 233.085075,37.7975798 232.881863,39.4232821 L238.775034,39.4232821 Z"></path>
                        <path d="M245.07463,33.9365367 L248.326035,33.9365367 L248.326035,35.7654518 L248.326035,35.7654518 C249.342099,34.3429623 250.967801,33.7333239 252.796716,33.7333239 C256.048121,33.7333239 257.470611,35.9686646 257.470611,39.2200693 L257.470611,47.7550067 L254.015993,47.7550067 L254.015993,40.4393461 C254.015993,38.8136438 254.015993,36.578303 251.780652,36.578303 C249.342099,36.578303 248.732461,39.2200693 248.732461,41.2521973 L248.732461,47.9582195 L245.277843,47.9582195 L245.07463,33.9365367 L245.07463,33.9365367 Z"></path>
                    </g>
                    <path d="M351.558135,32.3108343 L351.558135,0 L271.492293,0 L271.492293,32.3108343 L351.558135,32.3108343 L351.558135,32.3108343 Z M303.599915,3.04819192 L297.909957,29.0594296 L289.171807,29.0594296 L283.685061,11.1767037 L283.685061,11.1767037 L280.230444,29.0594296 L273.524421,29.0594296 L279.21438,3.04819192 L287.95253,3.04819192 L293.439275,21.1341306 L293.439275,21.1341306 L297.097106,3.04819192 L303.599915,3.04819192 L303.599915,3.04819192 Z M328.595089,3.04819192 L323.108343,29.0594296 L315.995896,29.0594296 L318.231236,18.0859387 L309.899512,18.0859387 L307.664171,29.0594296 L300.754936,29.0594296 L306.241681,3.04819192 L313.354129,3.04819192 L311.322001,13.0056189 L319.653726,13.0056189 L321.685854,3.04819192 L328.595089,3.04819192 L328.595089,3.04819192 Z M348.509943,3.6578303 L346.88424,8.94136296 C345.664964,8.33172458 343.836048,7.72208619 341.194282,7.72208619 C338.552516,7.72208619 336.113962,8.12851178 336.113962,10.1606397 C336.113962,13.81847 346.274602,12.3959805 346.274602,20.3212795 C346.274602,27.6369401 339.56858,29.2626424 333.675409,29.2626424 C331.033642,29.2626424 327.782238,28.653004 325.546897,28.0433656 L327.172599,22.759833 C328.595089,23.5726842 331.236855,24.1823225 333.675409,24.1823225 C335.707537,24.1823225 339.365367,23.775897 339.365367,21.1341306 C339.365367,17.0698747 329.204727,18.4923643 329.204727,11.1767037 C329.204727,4.47068148 335.097898,2.43855353 340.787856,2.43855353 C343.632836,2.43855353 346.88424,2.84497912 348.509943,3.6578303 L348.509943,3.6578303 Z" id="Shape"></path>
                </g>
                <g id="Group" transform="translate(382.717430, 0.000000)" fill-rule="nonzero">
                    <path d="M78.2369259,36.3750902 L82.097969,36.3750902 L84.7397353,30.685132 L94.6971623,30.685132 L97.1357158,36.3750902 L100.996759,36.3750902 L89.8200552,11.7863421 L78.2369259,36.3750902 Z M89.4136296,27.4337273 L89.4136296,27.4337273 L86.1622249,27.4337273 L89.8200552,19.5084283 L93.2746727,27.4337273 L89.4136296,27.4337273 Z" id="Shape"></path>
                    <polygon id="Shape" points="120.301974 29.2626424 103.2321 11.5831293 103.2321 36.3750902 106.88993 36.3750902 106.88993 20.1180667 123.756592 37.7975798 123.756592 13.0056189 120.301974 13.0056189"></polygon>
                    <path d="M126.195145,36.3750902 L130.056189,36.3750902 L132.697955,30.685132 L142.655382,30.685132 L145.093935,36.3750902 L148.954978,36.3750902 L137.778275,11.7863421 L126.195145,36.3750902 Z M133.917232,27.4337273 L137.575062,19.5084283 L141.029679,27.4337273 L133.917232,27.4337273 Z" id="Shape"></path>
                    <polygon id="Shape" points="154.644937 13.0056189 151.190319 13.0056189 151.190319 36.3750902 161.554172 36.3750902 161.554172 32.9204727 154.644937 32.9204727"></polygon>
                    <polygon id="Shape" points="168.260194 22.3534074 162.976661 13.0056189 159.115618 13.0056189 166.634492 26.2144505 166.634492 36.3750902 170.089109 36.3750902 170.089109 26.2144505 177.811195 13.0056189 173.746939 13.0056189"></polygon>
                    <polygon id="Shape" points="178.827259 16.4602364 184.110792 16.4602364 184.110792 36.3750902 187.768622 36.3750902 187.768622 16.4602364 193.052155 16.4602364 193.052155 13.0056189 178.827259 13.0056189"></polygon>
                    <rect id="Rectangle-path" x="195.490708" y="13.0056189" width="3.45461751" height="23.1662586"></rect>
                    <path d="M217.844116,32.9204727 L212.967009,24.1823225 L223.127648,7.3156606 L219.063393,7.3156606 L210.934881,20.9309178 L206.464199,13.0056189 L202.399943,13.0056189 L208.69954,24.1823225 L197.929262,42.0650485 L201.993518,42.0650485 L210.731668,27.4337273 L215.811988,36.3750902 L215.811988,36.3750902 L215.811988,36.3750902 L219.469818,36.3750902 L222.314797,30.8883448 L231.25616,30.8883448 L232.881863,36.3750902 L236.539693,36.3750902 L228.614394,11.5831293 L217.844116,32.9204727 Z M224.143712,27.8401529 L228.207968,19.5084283 L230.646522,27.8401529 L224.143712,27.8401529 L224.143712,27.8401529 Z" id="Shape"></path>
                    <path d="M250.15495,28.4497912 L255.844908,28.4497912 C255.438483,29.8722808 254.828844,30.8883448 253.609568,31.7011959 C252.390291,32.5140471 250.967801,32.9204727 249.342099,32.9204727 C247.106758,32.9204727 245.07463,32.1076215 243.652141,30.685132 C242.229651,29.2626424 241.4168,27.2305145 241.4168,24.9951737 C241.4168,22.3534074 242.229651,20.3212795 243.855353,18.6955771 C245.481056,17.0698747 247.309971,16.2570236 249.951737,16.2570236 C252.999929,16.2570236 255.438483,17.4763003 257.267398,19.9148539 L259.502739,17.6795131 C257.064185,14.4281084 253.81278,13.0056189 249.951737,13.0056189 C246.903545,13.0056189 244.261779,14.0216828 242.026438,15.850598 C240.807162,16.8666619 239.791098,18.2891515 239.181459,19.9148539 C238.571821,21.5405562 238.165395,23.3694714 238.165395,24.9951737 C238.165395,28.2465784 239.181459,30.8883448 241.213587,32.9204727 C243.245715,34.9526007 245.887481,35.9686646 249.138886,35.9686646 C252.999929,35.9686646 255.844908,34.3429623 257.877036,31.2947704 C258.8931,29.669068 259.502739,27.6369401 259.705951,24.9951737 L250.358163,24.9951737 L250.15495,28.4497912 Z" id="Shape"></path>
                    <polygon id="Shape" points="262.144505 36.3750902 265.39591 36.3750902 268.240889 13.0056189 264.786271 13.0056189"></polygon>
                    <polygon id="Shape" points="276.775826 13.0056189 273.321209 13.0056189 270.47623 36.3750902 280.636869 36.3750902 281.043295 32.9204727 274.337273 32.9204727"></polygon>
                    <polygon id="Shape" points="283.278636 36.3750902 286.53004 36.3750902 289.375019 13.0056189 285.920402 13.0056189"></polygon>
                    <polygon id="Shape" points="291.61036 16.4602364 297.097106 16.4602364 294.658552 36.3750902 298.11317 36.3750902 300.551723 16.4602364 305.835256 16.4602364 306.241681 13.0056189 292.016786 13.0056189"></polygon>
                    <polygon id="Shape" points="321.279428 13.0056189 315.183044 22.3534074 310.712363 13.0056189 307.054533 13.0056189 313.150916 25.6048121 311.728427 36.3750902 315.183044 36.3750902 316.605534 26.0112377 325.140471 13.0056189"></polygon>
                    <path d="M65.231307,23.3694714 C62.9959663,23.3694714 61.1670512,25.1983865 60.9638384,27.2305145 L49.5839219,27.2305145 C49.3807091,24.1823225 48.3646451,21.5405562 46.5357299,19.5084283 L50.1935602,15.850598 L52.8353266,15.6473852 L51.6160498,14.4281084 L52.428901,13.6152572 C53.8513906,14.834534 55.4770929,15.4441724 57.5092209,15.4441724 C61.7766895,15.4441724 65.231307,11.9895549 65.231307,7.72208619 C65.231307,3.45461751 61.7766895,-7.10542736e-15 57.5092209,-7.10542736e-15 C53.2417522,-7.10542736e-15 49.7871347,3.45461751 49.7871347,7.72208619 C49.7871347,9.75421414 50.5999858,11.5831293 52.0224754,13.0056189 L51.2096242,13.81847 L49.9903475,12.5991933 L49.7871347,15.4441724 L46.3325172,18.8987899 C44.0971764,16.8666619 41.2521973,15.4441724 38.0007926,15.4441724 C34.9526007,15.4441724 32.1076215,16.6634492 29.8722808,18.4923643 L21.743769,10.3638525 C22.3534074,9.55100134 22.759833,8.73815016 22.759833,7.72208619 C22.759833,5.28353266 20.727705,3.45461751 18.4923643,3.45461751 C16.0538108,3.45461751 14.2248956,5.48674545 14.2248956,7.72208619 C14.2248956,9.95742693 16.2570236,11.9895549 18.4923643,11.9895549 C19.5084283,11.9895549 20.5244922,11.5831293 21.1341306,10.9734909 L29.2626424,19.1020027 C27.2305145,21.1341306 26.0112377,23.9791098 25.8080249,27.0273017 L20.1180667,27.0273017 L18.0859387,25.1983865 L18.0859387,27.0273017 L17.2730875,27.0273017 C17.0698747,22.9630458 13.6152572,19.7116411 9.55100134,19.7116411 C5.28353266,19.7116411 1.82891515,23.1662586 1.82891515,27.4337273 C1.82891515,31.7011959 5.28353266,35.1558135 9.55100134,35.1558135 C13.81847,35.1558135 17.0698747,31.9044087 17.2730875,27.8401529 L18.0859387,27.8401529 L18.0859387,29.669068 L20.1180667,27.8401529 L25.8080249,27.8401529 C26.0112377,30.8883448 27.2305145,33.7333239 29.2626424,35.7654518 L21.1341306,43.8939636 C20.3212795,43.2843252 19.5084283,42.8778996 18.4923643,42.8778996 C16.0538108,42.8778996 14.2248956,44.9100276 14.2248956,47.1453683 C14.2248956,49.5839219 16.2570236,51.412837 18.4923643,51.412837 C20.9309178,51.412837 22.759833,49.3807091 22.759833,47.1453683 C22.759833,46.1293044 22.3534074,45.1132404 21.743769,44.503602 L29.8722808,36.3750902 C32.1076215,38.4072182 34.9526007,39.4232821 38.0007926,39.4232821 C41.2521973,39.4232821 44.3003892,38.2040054 46.3325172,35.9686646 L49.7871347,39.4232821 L49.9903475,42.0650485 L51.2096242,40.8457717 L52.2256882,41.8618357 C51.0064114,43.2843252 49.9903475,45.1132404 49.9903475,47.1453683 C49.9903475,51.412837 53.444965,54.8674545 57.7124336,54.8674545 C61.9799023,54.8674545 65.4345198,51.412837 65.4345198,47.1453683 C65.4345198,42.8778996 61.9799023,39.4232821 57.7124336,39.4232821 C55.8835185,39.4232821 54.0546033,40.0329205 52.6321138,41.2521973 L51.6160498,40.2361333 L52.8353266,39.0168566 L49.9903475,38.8136438 L46.7389427,35.562239 C48.5678579,33.5301111 49.7871347,30.8883448 49.7871347,28.0433656 L49.7871347,27.8401529 L61.1670512,27.8401529 C61.3702639,30.0754936 63.1991791,31.7011959 65.4345198,31.7011959 C67.8730734,31.7011959 69.9052013,29.669068 69.9052013,27.2305145 C69.7019885,25.4015993 67.6698606,23.3694714 65.231307,23.3694714 Z M37.594367,33.9365367 C34.1397495,33.9365367 31.4979832,31.2947704 31.4979832,27.8401529 C31.4979832,24.3855353 34.1397495,21.743769 37.594367,21.743769 C41.0489845,21.743769 43.6907508,24.3855353 43.6907508,27.8401529 C43.6907508,31.0915576 40.8457717,33.9365367 37.594367,33.9365367 Z" id="Shape"></path>
                </g>
                <text id="powered-by-Aridhia" font-family="Montserrat-Light, Montserrat" font-size="12.6719992" font-weight="300">
                    <tspan x="579.59995" y="55.9199962">powered by </tspan>
                    <tspan x="656.100809" y="55.9199962" font-family="Arial-BoldMT, Arial" font-weight="bold">Aridhia</tspan>
                </text>
            </g>
        </g>
    </g>
</svg>